<svg width="89" height="80" viewBox="0 0 89 80" xmlns="http://www.w3.org/2000/svg"><title>VivaIcons_Large_milhoes_imoveis</title><g fill="none" fill-rule="evenodd"><path d="M-6-8h96v96H-6z"/><path d="M48 42h-6c-1.1 0-2 .9-2 2v8c0 1.1.9 2 2 2h6c1.1 0 2-.9 2-2v-8c0-1.1-.9-2-2-2zm0 10h-6v-8h6v8zm0 6h-6c-1.1 0-2 .9-2 2v8c0 1.1.9 2 2 2h6c1.1 0 2-.9 2-2v-8c0-1.1-.9-2-2-2zm0 10h-6v-8h6v8zM34 10h-6c-1.1 0-2 .9-2 2v8c0 1.1.9 2 2 2h6c1.1 0 2-.9 2-2v-8c0-1.1-.9-2-2-2zm0 10h-6v-8h6v8zm14 6h-6c-1.1 0-2 .9-2 2v8c0 1.1.9 2 2 2h6c1.1 0 2-.9 2-2v-8c0-1.1-.9-2-2-2zm0 10h-6v-8h6v8zm0-26h-6c-1.1 0-2 .9-2 2v8c0 1.1.9 2 2 2h6c1.1 0 2-.9 2-2v-8c0-1.1-.9-2-2-2zm0 10h-6v-8h6v8zM7.63 68h4.73c.9 0 1.63-.73 1.63-1.63v-4.73c0-.9-.73-1.63-1.63-1.63H7.63c-.9 0-1.63.73-1.63 1.63v4.73c0 .9.73 1.63 1.63 1.63zM8 62h4v4H8v-4zm-.37-6h4.73c.9 0 1.63-.73 1.63-1.63v-4.73c0-.9-.73-1.63-1.63-1.63H7.63c-.9 0-1.63.73-1.63 1.63v4.73c0 .9.73 1.63 1.63 1.63zM8 50h4v4H8v-4zm26-24h-6c-1.1 0-2 .9-2 2v8c0 1.1.9 2 2 2h6c1.1 0 2-.9 2-2v-8c0-1.1-.9-2-2-2zm0 10h-6v-8h6v8zm54.17 24.52l-16.83-15.3c-.38-.35-.86-.52-1.35-.52-.49 0-.96.17-1.35.52L58 54.91V4c0-2.21-1.79-4-4-4H22c-2.21 0-4 1.79-4 4v12H4c-2.21 0-4 1.79-4 4v54c0 1.1.9 2 2 2h16v2c0 1.1.9 2 2 2h44c1.1 0 2-.9 2-2v-7.5c0-.28.22-.5.5-.5h7c.28 0 .5.22.5.5V78c0 1.1.9 2 2 2h6c1.1 0 2-.9 2-2V64h2.83c1.82 0 2.69-2.25 1.34-3.48zM18 74H2V20c0-1.1.9-2 2-2h14v56zm38 4H20V4c0-1.1.9-2 2-2h32c1.1 0 2 .9 2 2v52.73l-4.17 3.79c-1.35 1.23-.48 3.48 1.35 3.48H56v14zm26-16v16h-6v-7.5c0-1.38-1.12-2.5-2.5-2.5h-7c-1.38 0-2.5 1.12-2.5 2.5V78h-6V62h-4.83L70 46.7 86.83 62H82zM7.63 44h4.73c.9 0 1.63-.73 1.63-1.63v-4.73c0-.9-.73-1.63-1.63-1.63H7.63c-.9 0-1.63.73-1.63 1.63v4.73c0 .9.73 1.63 1.63 1.63zM8 38h4v4H8v-4zm26 4h-6c-1.1 0-2 .9-2 2v8c0 1.1.9 2 2 2h6c1.1 0 2-.9 2-2v-8c0-1.1-.9-2-2-2zm0 10h-6v-8h6v8zm0 6h-6c-1.1 0-2 .9-2 2v8c0 1.1.9 2 2 2h6c1.1 0 2-.9 2-2v-8c0-1.1-.9-2-2-2zm0 10h-6v-8h6v8zM7.63 32h4.73c.9 0 1.63-.73 1.63-1.63v-4.73c0-.9-.73-1.63-1.63-1.63H7.63c-.9 0-1.63.73-1.63 1.63v4.73c0 .9.73 1.63 1.63 1.63zM8 26h4v4H8v-4z" fill="#fff" fill-rule="nonzero"/></g></svg>