<?xml version="1.0" encoding="UTF-8"?>
<svg width="24px" height="24px" viewBox="0 0 24 24" version="1.1" xmlns="http://www.w3.org/2000/svg" xmlns:xlink="http://www.w3.org/1999/xlink">
    <!-- Generator: sketchtool 42 (36781) - http://www.bohemiancoding.com/sketch -->
    <title>A30DB6A8-D739-4563-AE72-C814BE8245C2</title>
    <desc>Created with sketchtool.</desc>
    <defs></defs>
    <g id="Web" stroke="none" stroke-width="1" fill="none" fill-rule="evenodd">
        <g id="Iconography" transform="translate(-737.000000, -64.000000)">
            <g id="ic_bathroom" transform="translate(736.000000, 64.000000)">
                <rect id="bounds" x="0" y="0" width="24" height="24"></rect>
                <path d="M15,13.4117647 L21,13.4117647 L21,15.2941176 C21,16.3338039 18.7613333,17.1764706 16,17.1764706 L16,18.1176471 L18,18.1176471 C19.1046667,18.1176471 20,18.9603137 20,20 L9,20 L9,18.1176471 L11,18.1176471 L11,17.1764706 C10.2553333,17.1764706 9.60666667,16.7924706 9.26266667,16.2243137 C9.174,16.2290196 9.08433333,16.2352941 9,16.2352941 C6.51866667,16.2352941 4,15.2941176 4,12.4705882 C3.44766667,12.4705882 3,12.0492549 3,11.5294118 L3,4.94117647 C3,4.42133333 3.44766667,4 4,4 L7,4 C7.55233333,4 8,4.42133333 8,4.94117647 L7,11.5294118 C7,12.0492549 6.55233333,12.4705882 6,12.4705882 C6,14.3529412 7.07,14.3529412 9,14.3529412 L9,13.4117647 L15,13.4117647 Z M19,10.5882353 C20.1046667,10.5882353 21,11.430902 21,12.4705882 L9,12.4705882 L9,10.5882353 L19,10.5882353 Z" id="Fill-1" fill-opacity="0.54" fill="#000000"></path>
            </g>
        </g>
    </g>
</svg>