<?xml version="1.0" encoding="UTF-8"?>
<svg width="24px" height="24px" viewBox="0 0 24 24" version="1.1" xmlns="http://www.w3.org/2000/svg" xmlns:xlink="http://www.w3.org/1999/xlink">
    <!-- Generator: sketchtool 42 (36781) - http://www.bohemiancoding.com/sketch -->
    <title>5D6632A6-B573-4DE7-9864-8B984311A83B</title>
    <desc>Created with sketchtool.</desc>
    <defs></defs>
    <g id="Web" stroke="none" stroke-width="1" fill="none" fill-rule="evenodd">
        <g id="Iconography" transform="translate(-648.000000, -64.000000)">
            <g id="ic_area" transform="translate(648.000000, 64.000000)">
                <rect id="bounds" x="0" y="0" width="24" height="24"></rect>
                <path d="M5.33333333,12.7856742 L5.33333333,17.852798 C5.33928172,17.8562385 5.34521268,17.8597058 5.35112604,17.8631998 L17.8631998,5.35112605 C17.8597058,5.34521268 17.8562385,5.33928172 17.852798,5.33333333 L12.7856742,5.33333333 L5.33333333,12.7856742 Z M5.33333333,11.2143258 L11.2143258,5.33333333 L6.14720204,5.33333333 C5.95204916,5.67073535 5.67073535,5.95204916 5.33333333,6.14720204 L5.33333333,11.2143258 Z M11.2143258,18.6666667 L18.6666667,11.2143258 L18.6666667,6.14720204 C18.6607183,6.1437615 18.6547873,6.14029418 18.648874,6.13680024 L6.13680025,18.648874 C6.14029418,18.6547873 6.1437615,18.6607183 6.14720204,18.6666667 L11.2143258,18.6666667 Z M12.7856742,18.6666667 L17.852798,18.6666667 C18.0479508,18.3292647 18.3292647,18.0479508 18.6666667,17.852798 L18.6666667,12.7856742 L12.7856742,18.6666667 Z M6.14720204,3.11111111 L17.852798,3.11111111 C18.2369997,2.44686039 18.9551497,2 19.7777778,2 C21.0051852,2 22,2.99481481 22,4.22222222 C22,5.04485034 21.5531396,5.7630003 20.8888889,6.14720204 L20.8888889,17.852798 C21.5531396,18.2369997 22,18.9551497 22,19.7777778 C22,21.0051852 21.0051852,22 19.7777778,22 C18.9551497,22 18.2369997,21.5531396 17.852798,20.8888889 L6.14720204,20.8888889 C5.7630003,21.5531396 5.04485034,22 4.22222222,22 C2.99481481,22 2,21.0051852 2,19.7777778 C2,18.9551497 2.44686039,18.2369997 3.11111111,17.852798 L3.11111111,6.14720204 C2.44686039,5.7630003 2,5.04485034 2,4.22222222 C2,2.99481481 2.99481481,2 4.22222222,2 C5.04485034,2 5.7630003,2.44686039 6.14720204,3.11111111 Z" id="Fill-1" fill-opacity="0.54" fill="#000000"></path>
            </g>
        </g>
    </g>
</svg>