<?xml version="1.0" encoding="UTF-8"?>
<svg width="24px" height="24px" viewBox="0 0 24 24" version="1.1" xmlns="http://www.w3.org/2000/svg" xmlns:xlink="http://www.w3.org/1999/xlink">
    <!-- Generator: sketchtool 42 (36781) - http://www.bohemiancoding.com/sketch -->
    <title>A00AEB73-B8DC-4A5B-84C0-6498FFAEB6BC</title>
    <desc>Created with sketchtool.</desc>
    <defs></defs>
    <g id="Web" stroke="none" stroke-width="1" fill="none" fill-rule="evenodd">
        <g id="Iconography" transform="translate(-516.000000, -64.000000)">
            <g id="ic_bedroom" transform="translate(516.000000, 64.000000)">
                <rect id="bounds" x="0" y="0" width="24" height="24"></rect>
                <path d="M3.9,20 L2,20 L2,5.9375 C2,5.4196875 2.42528333,5 2.95,5 C3.47471667,5 3.9,5.4196875 3.9,5.9375 L3.9,20 Z M19.1,16.25 L21,16.25 L21,19.98125 L19.1,19.98125 L19.1,16.25 Z M3.9,16.25 L19.1,16.25 L19.1,18.125 L3.9,18.125 L3.9,16.25 Z M18.15,9.6875 C19.72415,9.6875 21,10.9465625 21,12.5 L21,15.3125 L12.45,15.3125 L12.45,9.6875 L18.15,9.6875 Z M8.65,10.625 C8.65,11.660625 7.79943333,12.5 6.75,12.5 C5.70056667,12.5 4.85,11.660625 4.85,10.625 C4.85,9.589375 5.70056667,8.75 6.75,8.75 C7.79943333,8.75 8.65,9.589375 8.65,10.625 Z M9.6,15.3125 L5.8,15.3125 C5.27528333,15.3125 4.85,14.8928125 4.85,14.375 C4.85,13.8571875 5.27528333,13.4375 5.8,13.4375 L9.6,13.4375 L9.6,15.3125 Z M10.55,15.3125 L9.6,15.3125 L9.6,9.6875 C9.6,9.1696875 10.0252833,8.75 10.55,8.75 C11.0747167,8.75 11.5,9.1696875 11.5,9.6875 L11.5,14.375 C11.5,14.890625 11.0725,15.3125 10.55,15.3125 Z" id="Fill-1" fill-opacity="0.54" fill="#000000"></path>
            </g>
        </g>
    </g>
</svg>