<?xml version="1.0" standalone="no"?><!-- Generator: Gravit.io --><svg xmlns="http://www.w3.org/2000/svg" xmlns:xlink="http://www.w3.org/1999/xlink" style="isolation:isolate" viewBox="0 0 80.7 65" width="80.7" height="65"><path d=" M 61.371 58.931 L 61.371 33.262 L 48.663 28.688 L 48.663 60.964 C 43.581 61.219 39.768 60.964 39.768 60.964 L 39.006 16.743 L 75.095 33.008 L 38.498 0.478 C 38.498 0.478 41.039 0.478 28.332 9.119 L 28.332 2.765 L 33.415 4.544 L 28.84 0.478 L 18.166 11.406 L 18.166 18.268 C 13.083 24.113 8.254 26.655 5.459 29.45 C -1.149 36.82 -1.403 45.461 4.442 52.069 C 9.525 57.66 21.216 64.522 39.768 64.522 C 57.05 64.522 73.316 56.898 80.432 47.749 C 75.857 52.578 68.995 56.136 61.371 58.931 L 61.371 58.931 Z  M 15.624 52.832 C 5.459 49.02 7.238 41.649 10.033 37.075 C 12.829 32.5 15.624 31.738 15.624 31.738 L 15.624 52.832 Z  M 30.873 42.158 L 20.707 44.445 L 20.707 32.5 L 30.873 28.688 L 30.873 42.158 Z " fill="rgb(255,255,255)"/></svg>